<svg width="2414" height="817" viewBox="0 0 2414 817" fill="none" xmlns="http://www.w3.org/2000/svg">
<rect width="2414" height="817" fill="#5046E3"/>
<path d="M315.66 308.22C308.7 308.22 304.06 309.573 301.74 312.28C299.807 314.6 298.84 319.047 298.84 325.62V387.68H463.56V479.9H298.84V622H188.64V287.34C188.64 263.367 193.473 245.58 203.14 233.98C212.807 221.993 230.207 216 255.34 216H488.5V308.22H315.66Z" fill="white"/>
<path d="M649.5 308.22C642.54 308.22 637.9 309.573 635.58 312.28C633.647 314.6 632.68 319.047 632.68 325.62V372.6H800.3V465.4H632.68V512.38C632.68 518.953 633.647 523.593 635.58 526.3C637.9 528.62 642.54 529.78 649.5 529.78H829.3V622H589.18C564.047 622 546.647 616.2 536.98 604.6C527.313 592.613 522.48 574.827 522.48 551.24V287.34C522.48 263.367 527.313 245.58 536.98 233.98C546.647 221.993 564.047 216 589.18 216H829.3V308.22H649.5Z" fill="white"/>
<path d="M993.5 308.22C986.54 308.22 981.9 309.573 979.58 312.28C977.647 314.6 976.68 319.047 976.68 325.62V372.6H1144.3V465.4H976.68V512.38C976.68 518.953 977.647 523.593 979.58 526.3C981.9 528.62 986.54 529.78 993.5 529.78H1173.3V622H933.18C908.047 622 890.647 616.2 880.98 604.6C871.313 592.613 866.48 574.827 866.48 551.24V287.34C866.48 263.367 871.313 245.58 880.98 233.98C890.647 221.993 908.047 216 933.18 216H1173.3V308.22H993.5Z" fill="white"/>
<path d="M1940.18 197V603H1831.14V535.72H1697.16L1669.9 603H1552.74L1675.12 307.2C1684.4 284.773 1693.29 266.407 1701.8 252.1C1710.69 237.793 1720.75 226.58 1731.96 218.46C1743.17 210.34 1756.51 204.733 1771.98 201.64C1787.83 198.547 1807.55 197 1831.14 197H1940.18ZM1831.14 289.8C1818.38 291.733 1806.78 298.887 1796.34 311.26C1786.29 323.633 1776.04 342.58 1765.6 368.1L1734.86 443.5H1831.14V289.8Z" fill="white"/>
<path d="M2252.46 510.78V603H2041.34C2016.21 603 1998.81 597.2 1989.14 585.6C1979.47 573.613 1974.64 555.827 1974.64 532.24V197H2084.84V493.38C2084.84 499.953 2085.81 504.593 2087.74 507.3C2090.06 509.62 2094.7 510.78 2101.66 510.78H2252.46Z" fill="white"/>
<path d="M1505.89 525.66L1409.27 632.877C1385 659.813 1350.44 675.193 1314.18 675.193H1219.41C1196.59 675.193 1184.55 648.149 1199.83 631.19L1400.41 408.6L1476.25 450.185L1505.89 525.66Z" fill="#E0E0E0"/>
<path d="M1577.24 446.469L1505.89 525.659L1400.41 408.599L1199.83 186.003C1184.55 169.044 1196.59 142 1219.41 142H1314.17C1350.43 142 1385 157.38 1409.27 184.316L1577.24 370.729C1596.64 392.249 1596.64 424.95 1577.24 446.469Z" fill="white"/>
</svg>
